<svg xmlns="http://www.w3.org/2000/svg" viewBox="0 0 39.41 48.54"><defs><style>.cls-1{fill:#ba2025;}.cls-2{fill:#7e1416;}</style></defs><title>nat_gov</title><g id="Layer_2" data-name="Layer 2"><g id="Layer_1-2" data-name="Layer 1"><path class="cls-1" d="M19.71,0h0a19.71,19.71,0,0,0-7.2,38.05,17.8,17.8,0,0,0,2.41.77,19.4,19.4,0,0,0,4.79.59h0a19.91,19.91,0,0,0,4.8-.59,19,19,0,0,0,2.39-.77A19.71,19.71,0,0,0,19.71,0Zm2.9,35.24a15.41,15.41,0,0,1-2.9.27h0a15.41,15.41,0,0,1-2.9-.27A15.8,15.8,0,0,1,19.7,3.9h0a15.8,15.8,0,0,1,2.9,31.34Z"/><polygon class="cls-1" points="26.27 35.24 24.51 38.82 19.71 48.54 14.91 38.82 13.14 35.24 26.27 35.24"/><path class="cls-1" d="M19.71,3a16.66,16.66,0,0,0-6,32.2,16.69,16.69,0,0,0,12,0,16.66,16.66,0,0,0-6-32.2ZM10,20a9.67,9.67,0,1,1,9.67,9.67A9.66,9.66,0,0,1,10,20Z"/><path class="cls-2" d="M39.41,19.7A19.73,19.73,0,0,1,26.9,38.05a19,19,0,0,1-2.39.77l-4.8,9.72V29.64a9.67,9.67,0,0,0,0-19.34V0A19.71,19.71,0,0,1,39.41,19.7Z"/></g></g></svg>